<svg width="23" height="22" viewBox="0 0 23 22" fill="none" xmlns="http://www.w3.org/2000/svg">
<path d="M21.9906 8.23992L21.7026 7.95192C21.8889 7.56477 21.9528 7.13004 21.8857 6.70566C21.8187 6.28128 21.6238 5.88742 21.3273 5.57658C21.1249 5.3752 20.8819 5.21929 20.6145 5.11927C20.3471 5.01926 20.0614 4.97743 19.7766 4.99658C19.5089 5.01223 19.246 5.07474 18.9999 5.18125V0.333252H0.333252V21.6666H18.9999V10.8799L21.0599 8.81992L21.2359 8.99525C21.2589 9.01822 21.2772 9.0455 21.2896 9.07553C21.3021 9.10556 21.3085 9.13774 21.3085 9.17025C21.3085 9.20276 21.3021 9.23495 21.2896 9.26497C21.2772 9.295 21.2589 9.32228 21.2359 9.34525L19.6672 10.9146C19.5672 11.0146 19.5109 11.1502 19.5109 11.2917C19.5108 11.4331 19.5669 11.5688 19.6669 11.6689C19.7669 11.769 19.9025 11.8252 20.044 11.8253C20.1855 11.8254 20.3212 11.7692 20.4213 11.6693L21.9906 10.0999C22.237 9.85316 22.3755 9.51867 22.3755 9.16992C22.3755 8.82116 22.237 8.48667 21.9906 8.23992ZM4.33325 4.46658H15.0013V5.53325H4.33325V4.46658ZM4.33325 7.13325H15.0013V8.19992H4.33325V7.13325ZM4.33325 9.79992H11.3333V10.8666H4.33325V9.79992ZM14.1939 18.9306H8.99192C8.39058 18.9306 7.82792 18.8733 7.52925 18.3813C7.22325 17.8779 7.52725 17.2933 7.74925 16.8653C7.78858 16.7899 7.70125 16.6966 7.60125 16.7999C7.30792 17.1013 6.84125 17.6439 6.46592 18.0799C6.06925 18.5413 5.91192 18.7219 5.82792 18.7979C5.73905 18.9012 5.61834 18.9719 5.48484 18.9989C5.35133 19.0259 5.21262 19.0078 5.09058 18.9473C4.98102 18.884 4.89518 18.7866 4.84619 18.6699C4.79719 18.5533 4.78773 18.4238 4.81925 18.3013C4.84725 18.1346 5.32325 16.2799 5.75458 14.6126C5.18125 15.6306 3.36125 18.6793 3.27592 18.8226C3.21244 18.9289 3.10932 19.0057 2.98923 19.036C2.86915 19.0664 2.74194 19.0477 2.63559 18.9843C2.52923 18.9208 2.45245 18.8177 2.42213 18.6976C2.39182 18.5775 2.41044 18.4503 2.47392 18.3439C2.49725 18.3059 4.77725 14.4853 5.06459 13.9306C5.15825 13.7089 5.33259 13.531 5.55237 13.4328C5.77214 13.3347 6.02097 13.3237 6.24859 13.4019C6.45404 13.4854 6.6202 13.6437 6.7136 13.8449C6.807 14.046 6.82069 14.2751 6.75192 14.4859C6.51192 15.4113 6.26725 16.3606 6.07859 17.0993C6.38325 16.7473 6.70192 16.3859 6.93192 16.1493C7.10893 15.9365 7.3508 15.7875 7.62051 15.7253C7.89021 15.663 8.17289 15.6909 8.42525 15.8046C8.58207 15.8844 8.70767 16.0144 8.78209 16.1739C8.8565 16.3333 8.87545 16.5131 8.83592 16.6846C8.77224 16.897 8.6855 17.1017 8.57725 17.2953C8.39925 17.6653 8.48392 17.9966 8.99192 17.9966H14.1939C14.3177 17.9966 14.4364 18.0458 14.5239 18.1333C14.6114 18.2208 14.6606 18.3395 14.6606 18.4633C14.6606 18.587 14.6114 18.7057 14.5239 18.7932C14.4364 18.8808 14.3177 18.9299 14.1939 18.9299V18.9306ZM12.8073 15.5639L11.0713 16.0219C11.046 16.0291 11.0193 16.0293 10.9939 16.0225C10.9686 16.0156 10.9455 16.0021 10.9273 15.9833C10.9081 15.9652 10.8943 15.9422 10.8874 15.9168C10.8804 15.8914 10.8806 15.8646 10.8879 15.8393L11.3306 14.1066L15.7239 9.71325L17.1906 11.1799L12.8073 15.5639ZM20.4513 7.91925L17.9446 10.4259L16.4779 8.95925L18.9846 6.45258C19.2087 6.22209 19.5104 6.0829 19.8313 6.06192L19.8913 6.05992C20.0171 6.05767 20.1422 6.0805 20.2592 6.12708C20.3762 6.17367 20.4827 6.24307 20.5726 6.33125C20.7653 6.55871 20.8606 6.85292 20.8379 7.15016C20.8152 7.44739 20.6763 7.72371 20.4513 7.91925Z" fill="#3473A8"/>
</svg>
