<svg width="17" height="18" viewBox="0 0 17 18" fill="none" xmlns="http://www.w3.org/2000/svg">
<path d="M8.954 8.61595L11.911 5.65895L2.36 0.290951C1.727 -0.0510492 1.134 -0.099049 0.614 0.274951L8.954 8.61595ZM12.415 12.078L15.489 10.349C16.089 10.013 16.418 9.53695 16.418 9.00895C16.418 8.48195 16.089 8.00495 15.49 7.66895L12.707 6.10595L9.574 9.23795L12.415 12.078ZM0.0999999 1.00195C0.0359999 1.19895 0 1.41895 0 1.65995V16.365C0 16.746 0.0840001 17.0739 0.236 17.3349L8.333 9.23695L0.0999999 1.00195ZM8.954 9.85695L0.902 17.91C1.056 17.969 1.222 18 1.397 18C1.709 18 2.034 17.908 2.365 17.724L11.62 12.527L8.954 9.85695Z" fill="white"/>
</svg>
