<svg width="37" height="31" viewBox="0 0 37 31" fill="none" xmlns="http://www.w3.org/2000/svg">
<path d="M36.7812 4.17531C35.4365 4.75539 33.9731 5.17287 32.4658 5.33547C34.0307 4.40574 35.2027 2.93693 35.7617 1.20461C34.2932 2.07819 32.6844 2.69077 31.0068 3.01516C30.3056 2.26556 29.4576 1.66841 28.5156 1.26089C27.5735 0.853375 26.5576 0.644235 25.5312 0.646503C21.3784 0.646503 18.0386 4.01272 18.0386 8.14358C18.0386 8.72366 18.1089 9.30373 18.2231 9.86184C12.0049 9.53664 6.45898 6.56594 2.77197 2.0176C2.10016 3.16508 1.74811 4.47162 1.75244 5.80129C1.75244 8.40285 3.07519 10.6968 5.09228 12.0459C3.90358 11.9991 2.74272 11.6724 1.7041 11.0923V11.1846C1.7041 14.8277 4.27929 17.8467 7.71142 18.541C7.067 18.7084 6.40408 18.7941 5.73828 18.7959C5.25049 18.7959 4.78906 18.7476 4.32324 18.6817C5.27246 21.6524 8.03662 23.8101 11.3281 23.8804C8.75292 25.8975 5.52734 27.084 2.0249 27.084C1.39648 27.084 0.816406 27.062 0.214355 26.9917C3.53662 29.1231 7.47851 30.3535 11.7236 30.3535C25.5049 30.3535 33.0459 18.9366 33.0459 9.02688C33.0459 8.70168 33.0459 8.37649 33.0239 8.05129C34.4829 6.98342 35.7617 5.66067 36.7812 4.17531Z" fill="#3473A8"/>
</svg>
